<svg width="1080" height="1920" viewBox="0 0 1080 1920" fill="none" xmlns="http://www.w3.org/2000/svg">
  <defs>
    <linearGradient id="igBg" x1="120" y1="80" x2="980" y2="1840" gradientUnits="userSpaceOnUse">
      <stop stop-color="#F58529"/>
      <stop offset="0.35" stop-color="#DD2A7B"/>
      <stop offset="0.7" stop-color="#8134AF"/>
      <stop offset="1" stop-color="#515BD4"/>
    </linearGradient>
    <linearGradient id="glass" x1="120" y1="140" x2="960" y2="1780" gradientUnits="userSpaceOnUse">
      <stop stop-color="white" stop-opacity="0.35"/>
      <stop offset="1" stop-color="white" stop-opacity="0.08"/>
    </linearGradient>
  </defs>

  <rect width="1080" height="1920" fill="url(#igBg)"/>

  <rect x="70" y="90" width="940" height="1740" rx="56" fill="url(#glass)" stroke="rgba(255,255,255,0.28)"/>

  <circle cx="170" cy="190" r="36" fill="rgba(255,255,255,0.95)"/>
  <rect x="230" y="165" width="300" height="50" rx="16" fill="rgba(255,255,255,0.95)"/>
  <rect x="230" y="230" width="200" height="30" rx="12" fill="rgba(255,255,255,0.75)"/>

  <rect x="140" y="340" width="800" height="980" rx="34" fill="rgba(0,0,0,0.18)"/>
  <polygon points="520,760 520,900 640,830" fill="rgba(255,255,255,0.95)"/>

  <text x="140" y="1430" fill="white" font-family="Arial, Helvetica, sans-serif" font-size="62" font-weight="700">Hysteria Berkelana</text>
  <text x="140" y="1500" fill="white" opacity="0.9" font-family="Arial, Helvetica, sans-serif" font-size="38">Dummy Reels Instagram</text>

  <rect x="140" y="1580" width="220" height="52" rx="20" fill="rgba(255,255,255,0.9)"/>
  <rect x="380" y="1580" width="260" height="52" rx="20" fill="rgba(255,255,255,0.7)"/>
  <rect x="140" y="1660" width="500" height="34" rx="14" fill="rgba(255,255,255,0.7)"/>

  <rect x="930" y="640" width="12" height="340" rx="6" fill="rgba(255,255,255,0.45)"/>
  <rect x="930" y="640" width="12" height="120" rx="6" fill="white"/>
</svg>
