<svg width="80" height="80" viewBox="0 0 80 80" fill="none" xmlns="http://www.w3.org/2000/svg">
<mask id="path-1-inside-1_263_200" fill="white">
<path d="M40 0C62.0914 0 80 17.9086 80 40C80 62.0914 62.0914 80 40 80C17.9086 80 0 62.0914 0 40C0 17.9086 17.9086 0 40 0Z"/>
</mask>
<path d="M40 0C62.0914 0 80 17.9086 80 40C80 62.0914 62.0914 80 40 80C17.9086 80 0 62.0914 0 40C0 17.9086 17.9086 0 40 0Z" fill="white"/>
<path d="M40 0V1C61.5391 1 79 18.4609 79 40H80H81C81 17.3563 62.6437 -1 40 -1V0ZM80 40H79C79 61.5391 61.5391 79 40 79V80V81C62.6437 81 81 62.6437 81 40H80ZM40 80V79C18.4609 79 1 61.5391 1 40H0H-1C-1 62.6437 17.3563 81 40 81V80ZM0 40H1C1 18.4609 18.4609 1 40 1V0V-1C17.3563 -1 -1 17.3563 -1 40H0Z" fill="#E83C91" mask="url(#path-1-inside-1_263_200)"/>
<mask id="mask0_263_200" style="mask-type:alpha" maskUnits="userSpaceOnUse" x="10" y="10" width="60" height="60">
<rect x="10.5" y="10.5" width="59" height="59" rx="29.5" fill="#EA4C89" stroke="#EA4C89"/>
</mask>
<g mask="url(#mask0_263_200)">
</g>
<path d="M28.3333 40H51.6667M51.6667 40L40 28.3334M51.6667 40L40 51.6667" stroke="#E83C91" stroke-width="3.5" stroke-linecap="round" stroke-linejoin="round"/>
</svg>
