<svg width="114" height="100" viewBox="0 0 114 100" fill="none" xmlns="http://www.w3.org/2000/svg">
<path d="M67.5066 2.12331C61.114 3.51458 62.1336 13.3936 66.5096 25.9088C75.2916 51.0291 39.4406 55.2469 50.7503 23.2647C54.387 12.9795 57.9304 0.133845 45.3276 0.00112303C21.9121 -0.246358 9.20934 40.4734 28.4635 58.665C26.4282 59.4755 21.4375 62.523 18.3964 66.0281C38.1092 58.1656 46.4522 65.3519 56.1979 65.2118C65.9436 65.0717 69.6886 56.6987 92.0078 64.7746C88.6728 61.1498 83.8624 58.2758 79.6281 56.9173C95.2117 37.7281 80.5776 -0.725902 67.5066 2.12331ZM38.1741 43.9468C34.1567 42.5606 33.1733 36.2549 36.0982 34.8146C35.74 37.5462 36.3507 41.1953 38.1741 43.9468ZM72.1035 38.1173C74.9877 41.9013 71.481 47.336 67.6524 46.4316C69.9248 44.611 71.9137 41.4382 72.1035 38.1173ZM44.5333 45.0539C39.0829 42.0821 39.3128 30.069 43.8815 27.9288C42.0344 33.7052 42.7478 40.5813 44.5333 45.0539Z" fill="white"/>
<path d="M95.52 90.386C95.8911 91.2574 94.5234 91.664 91.4414 91.7294C90.9608 91.7395 90.4096 91.7332 89.7769 91.7445C89.1557 91.7556 88.8276 91.7801 88.7924 91.7825C87.6561 91.863 86.9484 91.4693 86.6596 90.6055C86.5383 90.2433 86.5774 89.7692 86.7651 89.1752C86.9527 88.6075 86.9876 88.157 86.8823 87.8203C86.683 87.056 85.896 84.5937 84.6201 80.6263C84.0561 78.8724 83.6004 77.7999 83.2958 77.3721C82.6863 76.5472 82.3727 76.0962 82.3465 76.0136C82.2084 75.5777 82.5456 75.3361 83.3546 75.2908C83.0849 75.3097 83.8701 75.3248 85.7103 75.4496C87.0112 75.5367 87.7261 75.6162 87.9137 75.6615C88.2299 75.7637 88.4843 76.0117 88.6403 76.4145C88.6717 76.4959 88.7587 76.7513 88.8864 77.1564C89.0164 77.5684 89.1429 77.9582 89.2732 78.2992C89.9747 80.1341 90.6453 81.8293 91.2657 83.3511C91.8993 84.9056 92.4962 86.2915 93.0352 87.4911C93.1995 87.8656 93.6213 88.3539 94.3012 88.9671C94.9808 89.5764 95.3756 90.0467 95.52 90.386ZM17.3928 89.1677C16.7951 89.7997 14.9892 90.0965 11.9662 90.2008C11.0511 90.2324 10.478 90.159 10.2552 89.9207C10.2904 89.8563 10.3256 89.7921 10.3489 89.7201C10.4428 89.5384 10.7474 89.2357 11.3216 88.8232C11.8492 88.403 12.2053 88.041 12.3647 87.7295C12.4399 87.5832 12.6303 87.2136 12.9391 86.6093C13.2393 86.0217 13.5022 85.5196 13.7008 85.1109C16.0567 80.271 16.3298 77.9859 14.7322 78.2046C13.0116 78.4398 11.4155 80.0777 9.83331 83.0637C8.96586 84.6718 8.08715 86.3181 7.19611 87.9716C6.90327 88.4862 6.82117 88.9367 6.94999 89.3152C7.06729 89.7012 7.08516 90.0066 6.96178 90.2272C6.68663 90.7185 5.26797 91.1184 2.76575 91.6765C1.09298 92.0496 0.163929 92.2365 0 92.0661C0 92.0435 0.0233159 92.0246 0.0351093 91.9944C0.129004 91.8241 0.492153 91.4116 1.18361 90.7267C1.87526 90.0493 2.37312 89.4688 2.66052 88.986C3.68555 87.2627 4.97204 85.0785 6.44613 82.4581C7.15193 81.2035 7.90354 79.8521 8.67301 78.4052C9.4385 76.965 10.267 75.4119 11.1105 73.7657C11.3334 73.3341 11.3569 73.0087 11.2045 72.7893C11.0523 72.5737 11.0053 72.3806 11.0872 72.2216C11.521 71.7977 12.92 71.2729 15.2948 70.7156C15.8389 70.5879 15.9933 70.8694 15.6934 71.48C15.6421 71.5845 15.5459 71.7506 15.4239 71.9681C15.2998 72.1895 15.2056 72.3327 15.166 72.4108C14.6665 73.3922 14.1654 74.3925 13.6423 75.4006C13.0406 76.5608 13.0568 77.0969 13.6659 76.9784C13.8537 76.9419 14.3925 76.653 15.2948 76.1422C16.1622 75.6427 16.9675 75.3314 17.7093 75.2529C19.3586 75.0779 20.2176 75.6691 20.3229 76.9367C20.3465 77.8338 19.9604 79.2381 19.1274 81.1638C19.0114 81.4326 18.8344 81.8036 18.635 82.2878C18.3891 82.7798 18.2487 83.1394 18.1545 83.3586C17.956 83.8204 17.6623 84.4373 17.3694 85.2169C16.9827 86.216 16.7012 86.8555 16.6075 87.1315C16.3966 87.6198 16.4551 87.9944 16.7833 88.2743C17.17 88.6 17.381 88.8989 17.3928 89.1677ZM113.3 92.3349C113.649 92.8885 113.581 93.2356 113.077 93.3909C112.655 93.5195 112.103 93.502 111.424 93.3378C110.463 93.1048 109.35 92.649 108.096 91.9866C106.666 91.2337 105.764 90.5068 105.388 89.7997C105.119 89.2925 104.803 88.5468 104.533 87.582C104.217 86.6207 103.953 85.8993 103.701 85.4212C103.391 84.8358 102.939 84.5 102.306 84.3841C101.533 84.2428 100.876 84.3841 100.407 84.8308C99.8566 85.2964 99.7321 85.8816 100.079 86.564C100.271 86.9408 100.642 87.4987 101.228 88.2517C101.814 89.02 102.225 89.6023 102.423 89.9886C102.729 90.5859 102.844 90.9912 102.751 91.1883C102.645 91.4151 102.249 91.4729 101.591 91.4191C98.3579 91.155 96.1904 89.8664 95.1332 87.4192C94.4444 85.825 94.805 84.6945 96.141 84.0096C97.454 83.5897 98.7547 83.2074 100.044 82.8326C101.345 82.3143 101.566 81.3007 100.771 79.7674C99.9489 78.1824 98.8946 77.2871 97.5593 77.054C96.4454 76.8598 95.9888 77.1071 96.1528 77.7846C96.3756 78.4431 96.6099 79.1052 96.8327 79.7787C96.9145 80.4826 96.2118 80.7221 94.7464 80.581C93.657 80.4763 92.8674 79.8592 92.3905 78.7268C91.848 77.4377 92.0626 76.4487 92.9885 75.7448C93.8441 75.1129 94.9862 74.8826 96.446 75.1736C101.081 76.0974 104.794 79.0703 107.721 84.1156C108.052 84.6857 108.529 85.5649 109.139 86.7304C109.748 87.915 110.214 88.8131 110.581 89.4249C110.835 89.8499 111.298 90.3653 111.987 90.9802C112.693 91.61 113.133 92.0711 113.3 92.3349ZM34.1995 76.4336C34.141 76.653 34.0003 76.8687 33.7309 77.0844C33.5199 77.251 33.2972 77.4173 33.0862 77.599C32.7579 77.8678 31.3164 79.934 28.6325 84.0134C27.7653 85.2964 26.8743 86.6261 25.9604 87.9716C25.034 89.3354 24.0497 90.7227 23.0537 92.1532C22.2097 93.3645 21.3191 94.5979 20.4283 95.8428C19.3384 97.2924 18.2833 98.3254 17.2519 98.9385C15.8691 99.7786 14.3488 100.087 12.6578 99.9792C11.6873 99.9173 11.0053 99.5551 10.7005 98.8059C10.3723 98.0793 10.4351 97.2518 10.8996 96.3386C11.2552 95.6396 11.814 95.0634 12.564 94.6016C13.2907 94.1514 14.0293 93.9471 14.7204 93.9696C15.2948 93.9886 15.5761 94.3897 15.6115 95.1693C15.623 95.9601 16.0119 96.3586 16.7833 96.4257C18.4851 96.5741 19.9312 95.2657 21.0026 92.5128C21.4894 91.2621 21.7177 88.6 21.7292 84.6982C21.7646 81.5612 21.6823 79.2565 21.4831 77.7355C21.3425 77.3984 21.2604 76.8649 21.2604 76.1233C21.6707 75.7675 23.464 75.5858 26.6751 75.6653C26.6751 75.6653 26.8276 75.726 27.1206 75.8433C27.1088 75.9529 27.0973 76.0664 27.0855 76.1724C27.0149 76.3579 26.8509 76.6038 26.5699 76.9216C26.2769 77.2319 26.1093 77.4811 26.0423 77.6634C25.8165 78.2756 25.7961 79.4043 25.9604 81.0881C26.1362 82.9348 26.4767 83.8961 26.9684 83.9452C27.4609 83.9943 28.3512 83.0483 29.5584 81.1638C30.6132 79.5328 31.2157 78.3719 31.4219 77.6711C31.4382 77.6154 31.4807 77.1411 31.5158 76.2745C31.8789 76.0362 32.6173 75.9982 33.7776 76.1573C33.7776 76.1573 33.9067 76.2177 34.2113 76.3314C34.1995 76.3616 34.1995 76.3956 34.1995 76.4336ZM44.3729 89.213C44.1938 90.5635 43.4236 91.6841 42.0288 92.5393C40.6811 93.3453 39.2504 93.6236 37.8093 93.3378C37.3051 93.2377 36.5906 93.0086 35.6412 92.6226C34.7269 92.2516 34.0117 92.0185 33.5199 91.93C33.2969 91.8901 32.9689 91.8998 32.5003 91.9526C32.0432 92.017 31.7155 92.0295 31.4922 91.9906C30.8013 91.8705 30.6443 91.0642 31.0585 89.5991C31.5699 87.791 32.0309 86.9408 32.5003 87.018C32.6754 87.0466 32.9104 87.4079 33.2034 88.1004C33.6254 89.0012 34.0239 89.6824 34.3871 90.1175C35.0436 90.912 35.8997 91.4066 36.8719 91.5895C38.7356 91.9399 39.8094 91.362 40.0716 89.8563C40.2429 88.8721 39.6497 87.7939 38.3134 86.6435C37.0947 85.6293 35.9109 84.6378 34.7387 83.6727C33.5548 82.4657 33.1485 81.2455 33.473 80.0135C33.8165 78.7103 34.6802 77.6786 36.0514 76.9518C37.3405 76.2632 38.6404 76.0412 39.9895 76.2632C40.3867 76.3286 40.8685 76.5091 41.384 76.8043C42.0172 77.1486 42.4273 77.3645 42.6967 77.4327C42.861 77.4705 43.1187 77.5082 43.4236 77.5236C43.7751 77.5197 44.0208 77.5262 44.1502 77.5462C44.876 77.6585 45.14 78.417 44.9472 79.8771C44.8471 80.6343 44.5382 80.9758 44.0212 80.8951C43.7884 80.8588 43.2126 80.354 42.3685 79.3929C41.5247 78.4394 40.7165 77.9068 39.8489 77.7581C38.4432 77.5172 37.5803 77.9918 37.3056 79.2414C37.1467 79.9633 37.6805 80.8118 38.9699 81.7961C41.1616 83.4799 42.4155 84.4675 42.6618 84.7133C43.9979 86.0758 44.5919 87.5626 44.3729 89.213ZM56.1867 78.9009C56.1867 79.2339 55.9993 79.4759 55.6359 79.6086C55.2022 79.7447 54.7805 79.8734 54.3586 80.006C53.8076 80.2782 53.3857 80.759 53.0575 81.4364C52.8699 81.8489 52.6849 83.7595 52.5419 87.2981C52.3804 91.2938 52.6236 93.4128 53.2451 93.4513C53.4204 93.4619 53.7021 93.3984 54.0656 93.2585C54.4405 93.1183 54.7112 93.0525 54.8624 93.073C55.016 93.0938 55.179 93.1183 55.3313 93.1409C55.4014 93.8034 54.7687 94.4843 53.4442 95.1731C52.2252 95.7595 51.2391 96.003 50.4909 95.9148C48.7079 95.7043 47.5608 94.8817 47.0334 93.5270C46.6934 92.5961 46.5917 91.2225 46.7873 89.4667C46.8139 89.2246 46.8401 88.8793 46.8926 88.4296C46.9457 87.9751 46.976 87.65 46.9983 87.4494C47.1871 85.7394 47.338 83.9641 47.4669 82.1441C47.5138 81.338 47.4202 80.721 47.1856 80.2594C47.0801 80.0286 46.8574 79.7711 46.5293 79.4684C46.2948 79.2528 46.1783 79.0439 46.2011 78.8519C46.2481 78.461 47.2911 77.3721 49.2718 75.6162C51.1589 73.8189 52.2485 72.9588 52.612 72.971C52.9166 72.9813 53.0927 73.3303 53.0808 74.0232C53.0927 73.16 53.0525 73.6142 52.9874 75.3967C52.924 77.1335 53.3272 78.0873 54.1711 78.2083C54.5814 78.235 54.9563 78.269 55.3665 78.2954C55.9056 78.3674 56.1867 78.5755 56.1867 78.9009ZM70.0987 82.8289C70.2205 83.6043 69.8526 84.176 68.9736 84.5281C68.7391 84.6302 67.9653 84.7959 66.7001 85.005C64.9652 85.2915 64.0487 84.9254 63.969 83.9717C63.9435 83.6653 64.1684 83.2945 64.6254 82.8326C65.0825 82.3673 65.2715 81.9018 65.2231 81.3873C65.0841 79.9076 64.4152 79.2684 63.2306 79.442C62.6105 79.5331 62.0939 79.8545 61.7072 80.4335C61.3672 80.9633 61.2036 81.5537 61.2499 82.2198C61.2737 82.5601 61.4845 82.9047 61.9181 83.2643C62.3634 83.6236 62.5834 83.9493 62.6096 84.2215C62.6301 84.4373 62.3701 84.8393 61.8478 85.4325C61.3273 86.0234 61.0984 86.8099 61.1444 87.7672C61.2036 88.9933 61.6189 89.9783 62.375 90.6586C63.1542 91.3594 64.1932 91.6338 65.4577 91.4606C66.5134 91.3162 67.4267 90.8931 68.1765 90.2386C68.9149 89.5686 69.3722 89.2281 69.5479 89.2017C69.6301 89.1979 69.7354 89.1941 69.8293 89.1904C70.0638 89.5007 70.1691 89.6632 70.1691 89.6632C70.333 90.6736 69.4776 91.858 67.5906 93.1978C65.8914 94.3784 64.4409 95.0568 63.266 95.1656C60.7253 95.4011 58.7538 94.4617 57.4175 92.4711C56.3393 90.825 55.8101 88.7399 55.8235 86.2651C55.8332 84.4334 56.0108 83.0332 56.3275 82.023C56.7844 80.5659 57.6049 79.5215 58.8003 78.8783C60.1718 78.0948 61.1716 77.6762 61.836 77.5877C63.9848 77.3018 65.7738 77.4969 67.1921 78.2841C68.7979 79.1316 69.7519 80.6261 70.0987 82.8289ZM82.0768 76.6302C82.2644 77.2345 82.2292 77.849 81.9598 78.4884C81.6666 79.1885 81.2207 79.5727 80.6003 79.6426C80.1779 79.69 79.4165 79.4043 78.2912 78.8025C77.2015 78.2388 76.3666 77.9891 75.7832 78.0873C74.9248 78.2314 74.6579 79.0675 74.9743 80.581C75.2674 81.9888 75.5874 83.436 75.9121 84.9142C76.2436 86.4255 76.5801 87.9641 76.9317 89.5347C77.037 90.0266 77.3536 90.458 77.8574 90.8365C78.4202 91.2603 78.7954 91.6158 78.9476 91.896C78.7836 92.4789 77.5039 92.9638 75.115 93.3682C73.4141 93.6561 72.4077 93.6861 72.0209 93.4361C72.0091 93.1752 72.1616 92.7134 72.4896 92.051C72.8296 91.404 72.9504 90.8131 72.8645 90.2801C72.7043 89.2846 72.4181 87.8506 72.0561 86.0041C71.7031 84.2027 71.3175 82.0344 70.8373 79.5404C70.7434 79.0484 70.459 78.6194 70.0169 78.2426C69.5803 77.8705 69.3367 77.5688 69.3134 77.3419C69.3134 77.3001 69.3134 77.2586 69.3134 77.2206C69.5596 76.8574 70.0397 76.6054 70.7316 76.4638C71.7036 76.2651 72.5014 76.2217 73.1109 76.3314C73.4977 76.3918 73.8495 76.528 74.2244 76.7477C74.5173 76.9254 74.7513 77.003 74.9274 76.9709C75.2082 76.9199 75.7597 76.5471 76.5683 75.8697C77.3536 75.1924 78.0566 74.8191 78.6897 74.7535C79.4042 74.6792 80.0845 74.7837 80.7056 75.0789C81.4205 75.4269 81.866 75.9518 82.0768 76.6302ZM86.7065 70.4584C87.2747 71.9853 86.8236 72.7194 85.4054 72.6947C84.6555 72.6817 83.8817 72.4677 83.167 72.0892C82.3699 71.6804 81.8585 71.1562 81.6548 70.5112C81.4369 69.8203 81.5612 69.2774 82.0183 68.8916C82.4166 68.5473 83.0029 68.3542 83.7765 68.3807C84.4325 68.4031 85.0419 68.6195 85.5579 68.9824C86.0849 69.3533 86.4778 69.8439 86.7065 70.4584Z" fill="white"/>
</svg>
